<?xml version="1.0" encoding="UTF-8"?>
<svg width="1024" height="1024" viewBox="0 0 1024 1024" xmlns="http://www.w3.org/2000/svg">
  <!-- 垃圾桶外轮廓 -->
  <path d="M360 184h304v72h72v-80c0-35.3-28.7-64-64-64H352c-35.3 0-64 28.7-64 64v80h72v-72zm504 72H160c-17.7 0-32 14.3-32 32v32c0 4.4 3.6 8 8 8h60.4l24.7 523c1.6 34.1 29.8 61 63.9 61h454c34.2 0 62.3-26.8 63.9-61l24.7-523H888c4.4 0 8-3.6 8-8v-32c0-17.7-14.3-32-32-32z" stroke="currentColor" stroke-width="32" fill="none"/>
  <!-- 桶身三条竖线 -->
  <line x1="384" y1="416" x2="416" y2="768" stroke="currentColor" stroke-width="32" stroke-linecap="round"/>
  <line x1="512" y1="416" x2="512" y2="768" stroke="currentColor" stroke-width="32" stroke-linecap="round"/>
  <line x1="640" y1="416" x2="608" y2="768" stroke="currentColor" stroke-width="32" stroke-linecap="round"/>
</svg> 