<?xml version="1.0" encoding="UTF-8"?>
<svg width="1024" height="1024" viewBox="0 0 1024 1024" xmlns="http://www.w3.org/2000/svg">
  <path d="M512 714.7c-111.8 0-202.7-90.9-202.7-202.7S400.2 309.3 512 309.3 714.7 400.2 714.7 512 623.8 714.7 512 714.7zm0-320c-64.7 0-117.3 52.6-117.3 117.3S447.3 629.3 512 629.3 629.3 576.7 629.3 512 576.7 394.7 512 394.7z"/>
  <path d="M512 64c-247.4 0-448 200.6-448 448s200.6 448 448 448 448-200.6 448-448-200.6-448-448-448zm0 832c-212.1 0-384-171.9-384-384s171.9-384 384-384 384 171.9 384 384-171.9 384-384 384z"/>
  <path d="M512 128c-212.1 0-384 171.9-384 384s171.9 384 384 384 384-171.9 384-384-171.9-384-384-384zm0 704c-176.7 0-320-143.3-320-320s143.3-320 320-320 320 143.3 320 320-143.3 320-320 320z"/>
  <path d="M512 192c-176.7 0-320 143.3-320 320s143.3 320 320 320 320-143.3 320-320-143.3-320-320-320zm0 576c-141.4 0-256-114.6-256-256s114.6-256 256-256 256 114.6 256 256-114.6 256-256 256z"/>
</svg> 